<?xml version="1.0" standalone="no"?><!DOCTYPE svg PUBLIC "-//W3C//DTD SVG 1.1//EN" "http://www.w3.org/Graphics/SVG/1.1/DTD/svg11.dtd"><svg t="1764772538574" class="icon" viewBox="0 0 1024 1024" version="1.1" xmlns="http://www.w3.org/2000/svg" p-id="11303" xmlns:xlink="http://www.w3.org/1999/xlink" width="200" height="200"><path d="M115.264853 526.098773l33.629867-129.831253 99.689813 9.268907-6.956373 184.331946L45.738667 635.077973l25.494186 105.470294 165.771947-38.253227-9.2928 222.585173 107.8272 4.62336 10.42432-252.70272 96.223573-23.185066-25.51808-105.49248-64.904533 15.071573 5.802667-148.36736 67.213653 5.778773 8.113493-108.95872-70.705493-5.79072L373.792427 55.466667l-110.13632-4.6336-10.42432 245.746346-75.35104-6.946133 39.40864-151.857493-105.49248-27.830614L9.796267 498.292053l105.468586 27.80672z m440.50432-187.777706l39.430827-100.857174 304.872107 33.619627-34.786987 550.618453-113.604267 63.74912 55.635627 93.91104 136.787627-77.663573 27.828906-44.055893 40.56576-631.768747-48.677546-57.956693-325.741227-35.9424 26.673493-68.39296L563.882667 23.017813l-108.95872 275.88608 100.845226 39.417174z m-5.804373 556.42112l132.164267-506.586454-105.490774-26.651306-132.143786 505.407146 105.470293 27.830614z m195.915093-86.954667l111.291734-427.74528-105.49248-27.828907-111.26784 427.767467 105.468586 27.80672z" fill="#274EA1" p-id="11304"></path></svg>